<?xml version="1.0" encoding="UTF-8" standalone="yes"?>
<svg version="1.2" baseProfile="tiny-ps" viewBox="0 0 1000 1000" xml:space="preserve" xmlns="http://www.w3.org/2000/svg">
  <title>Norcal Ice Industries LLC</title>
    <g>
		<rect fill="#18416D" width="1000" height="1000"/>
		<g fill="#FFFFFF" transform="translate(15,0)">
			<path d="M385.31,215.73c6.54-8.85,7.13-18.5,4.3-29.27c-10.21,2.67-17.25,11.02-23.88,18.62
				c-31.11,35.88-39.55,85.45-69.06,122.38c-0.23-0.07-0.46-0.15-0.68-0.22c0-8.14,0-16.28,0-25.09c-1.31,0.73-2.13,0.98-2.66,1.51
				c-10.83,10.88-20.19,22.84-27.93,36.17c-6.13,10.56-14.47,19.46-23.22,27.95c-31.06,28.5-38.23,19.32-65.48,60.56
				c-0.03-0.58-0.21-1.16-0.06-1.64c2-6.49,3.83-13.04,6.15-19.41c2.64-7.24,7-13.46,12.68-18.7c12.63-12.18,22.34-26.79,30.84-42.06
				c-1.17,0.18-1.83,0.16-2.39,0.4c-8.6,3.61-17.27,7.06-25.74,10.95c-8.12,3.73-13.53,10.59-18.88,17.44
				c-9.19,11.77-18.14,23.74-27.73,35.18c-15.26,18.48-32.99,34.98-54.49,45.96c-13.8,8.01-21.03,10.86-37.43,8.57
				c20.61-13.85,40.19-29.04,56.7-47.66c8.9-9.93,16.97-20.62,25.23-31.11c14.8-17.64,32.37-33.25,52.32-44.79
				c8.34-4.6,17.01-8.4,26.16-11.11c8.38-2.48,14.67-7.97,20.16-14.44c5.57-6.56,11.3-12.88,18.83-17.28
				c7.37-4.31,14.38-9.15,19.41-16.15c4.71-6.56,10.8-11.21,17.61-15.33c2.46-1.49,4.22-4.35,5.88-6.87
				c11.51-17.48,22.95-35.02,34.34-52.58c16.51-26.86,22.42-41.5,57.91-36.8c2.11-5.14,6.66-8.51,12.1-9.27
				c17.77-1.81,30.83,5.99,40.77,20.09c2.41,3.98,4.85,7.83,9.05,10.22c13.67,8.47,27.01,17.36,38.93,28.31
				c4.22,3.88,9.76,6.32,14.75,9.35c0.49,0.29,1.3,0.04,1.97,0.04c-0.18-0.23-0.36-0.46-0.55-0.69c4.29-6.67,11.07-10.96,17.73-4.29
				c8.27,7.81,16.45,15.7,24.68,23.54c17.24,16.25,34.18,32.86,51.54,48.96c9.63,8.2,23.65,8.09,33.18-0.08
				c14.71-13.37,34.18-23.77,54.62-19.5c14.7,2.97,25.94,11.48,36.37,21.62c12.85,12.49,25.65,25.06,38.99,37.02
				c51.15,45.46,106,86.55,160.01,128.48c-0.04,0.25-0.09,0.49-0.13,0.74c-18.63-1.36-24.39,1.26-40.9-9.41
				c-36.15-19.46-71.66-40.5-108.12-59.21c-0.24,0.21-0.48,0.41-0.72,0.62c4.92,10.88,9.85,21.76,14.77,32.64
				c-0.18,0.18-0.36,0.37-0.54,0.55c-10.36-7.32-20.72-14.64-31.08-21.96c-0.24,0.19-0.47,0.38-0.71,0.57
				c24.46,52.18-53.09,84.95-93.78,89.76c-12.98,2.01-26.03,1.26-38.39-3.42c-22.07-6.9-45.99-4.84-67.86,1.97
				c4.57-11.58,16.2-15.84,27.15-18.83c18.19-5.75,44.28-0.63,58.22-13.34c11.56-11.36,20.99-24.8,30.81-37.66
				c4.3-5.71,8.68-11.36,11.23-18.17c4.13-13.72-17.83-7.54-24.17-4.55c-12.76,5.52-24.16,13.24-34.97,21.9
				c-0.79,0.57-0.84,0.88-2.05,0.65c7.71-24.9,31.93-36.57,50.08-52.74c14.88-13.38,21.97-30.24,19.93-50.35
				c-0.72-6.95-4.57-20.98-10.49-24.92c-29.73,59.13-57.23,36.46-81.28,80.61c-5.76,11.17-11.75,22.21-21.07,31.02
				c-21.15,19.77-48.37,31.12-74.58,42.53c-67.95,31.15-145.23,33.99-218.3,24.01c0-0.24,0.01-0.48,0.01-0.72
				c26.5-2.27,54.03-6.17,76.69-21.21c17.22-10.16,16.44-32.58,41.74-25.43c18.5,4.13,33.17,21.78,53.34,16.44
				c14.78-2.61,32.27-24.57,18.13-37.74c-12.05-8.81-15.19-20.62-19.05-34.19c-0.11-0.35,0.1-0.8,0.25-1.85
				c19.29,24.07,50.05,37.71,80.49,28.77c-0.73-0.56-1.38-1.38-2.2-1.64c-17.15-5.34-33.4-12.65-48.62-22.18
				c-10.48-6.56-19.5-14.72-26.69-24.85c-11.94-15.35-26.4-46.75-50.13-32.47c-6.38,3.72-12.27,8.3-18.44,12.4
				c-23.84,15.3-51.8,23.91-79.85,26.89c35.24-20.64,66.45-55.13,70.05-97.27c2.02-19.45,12.71-37.15,25.96-51.17
				c9.39-8.42,10.9-29.81-5.59-30.04c-2.04,0.11-2.54,1.31-2.88,3.05c-2.48,12.36-8.39,23.88-18.64,31.57
				C385.75,215.96,385.53,215.85,385.31,215.73z M519.76,243.33c-0.2,0.76-0.39,1.05-0.31,1.23c2.1,5.1,4.39,10.13,8.74,13.73
				c6.72,5.56,13.49,11.07,20.41,16.37c3.26,2.5,6.89,4.56,11.2,5.28c-3.07-5.37-8.76-8.84-12.68-13.63
				c-2.26-2.4-3.81-5.54-6.28-7.65C534.06,253.15,527.32,247.86,519.76,243.33z"/>
			<path d="M100.28,701.57c-14.84,2.47-29.02,4.84-43.68,7.28c4.41-3.96,4.79-8.86,4.78-13.94
				c-0.03-48.58-0.05-97.17,0.03-145.75c0.01-5.09-0.93-9.52-5.84-12.93c13.51,0,26.4,0,39.13,0c20.7,31.94,41.37,63.84,62.04,95.74
				c0.29-0.1,0.57-0.21,0.86-0.31c0.72-28.57,0.12-57.25,0.42-85.86c0.01-4.14-1.57-7.43-5.61-10.32c15.34,0,29.89,0,44.56,0
				c-5.2,3-5.53,8.09-5.52,13.49c0.01,30.37-0.05,60.75-0.14,91.12c-0.04,12.69-0.21,25.38-0.31,38.06c-0.03,4.2,1.31,7.7,5.73,10.12
				c-13.83,1.75-27.05,3.43-40.97,5.19c-20.09-29.79-40.31-59.79-60.64-89.93c-0.82,29.52-0.06,59.22-0.35,88.8
				C94.77,696.25,96.47,699.21,100.28,701.57z"/>
			<path d="M217.01,610.75c-2.23-68.13,77.77-106,126.35-59.47c63.54,64.35-20.02,165.48-95.56,121.29
				C226.28,659.04,217.36,635.33,217.01,610.75z M331.81,605.07c0-11.46-2.77-19.46-9.62-27.84c-38.73-42-89.51,14.55-65.91,54.46
				C277.89,669.86,333.69,645.97,331.81,605.07z"/>
			<path d="M765.76,535.44c-4.54,2.25-6.63,5.38-4.62,10.28c16.51,44.09,32.04,88.54,47.95,132.85
				c1.84,5.16,3.94,10.05,8.1,14.11c-15.71-1.92-31.42-3.84-47.64-5.82c3.81-2.01,6.66-4.42,5.01-8.88
				c-2.03-6.13-4.31-12.17-6.6-18.55c-19.84-1.65-39.67-3.3-59.65-4.96c-2.32,5.91-4.65,11.46-6.65,17.13
				c-1.38,4.22,1.92,6.51,5.25,8.96c-16.54-1.28-32.37-2.51-48.2-3.73c4.89-2.75,6.89-7.37,8.76-12.16
				c15.55-39.8,31.15-79.58,46.71-119.37c1.84-4.71,0.88-6.79-4.77-10.38c18.97,0,37.59,0,56.22,0
				C765.66,535.1,765.71,535.27,765.76,535.44z M720.06,624.58c12.19,0.76,23.83,1.49,36.02,2.25
				c-6.07-16.29-11.97-32.14-17.87-47.99c-0.22,0.03-0.45,0.05-0.67,0.08C731.77,593.96,726.02,609,720.06,624.58z"/>
			<path d="M424.83,619.9c-0.38,13.79-0.01,27.45-0.23,41.23c-0.04,4.4,0.91,8.15,5.9,10.66
				c-15.35,0.49-29.85,0.96-44.35,1.42c4.19-3.06,4.94-7.24,4.94-11.92c-0.01-38.69,0.04-77.37,0.16-116.06
				c0.02-4.54-0.98-8.3-5.95-10.86c24.95-0.47,49.72-0.25,74.65-0.12c15.91,0.18,29.67,5.57,39.33,18.95
				c17.13,23.05,5.19,57.15-22.35,63.48c8.19,14.9,16.06,29.72,24.57,44.4c2.17,3.72,5.56,6.74,8.33,10c-15.58,0-31.67,0-47.68,0
				c5.27-4.17,6.47-8.62,3.12-14.48c-7.09-12.36-14.45-24.57-21.63-36.71C437.31,619.9,431.16,619.9,424.83,619.9z M424.93,593.04
				c10.9,0.5,21.87,0.07,32.78-0.31c9.69-0.48,18.84-8.63,15.93-18.95c-1.55-6.92-6.09-11.87-12.95-12.38
				c-11.77-0.52-24.19-1.06-35.76-0.13C424.93,571.68,424.93,582.29,424.93,593.04z"/>
			<path d="M629.85,626.79c9.37,13.09,18.41,25.73,27.95,39.05c-10.31-3.21-18.02,1.97-26.31,5.6
				c-87.46,34.5-149.93-84.06-67.55-132.59c22.32-11.47,50.22-11.15,71.84,1.85c6.77,3.7,13.22,6.87,21.61,4.78
				c-9.39,12.66-18.4,24.79-27.74,37.38c-1.11-8.84-4.96-16.4-13.82-19.02c-15.94-4.92-31.01-3.52-43.99,7.96
				c-6.95,6.15-10.52,14.29-11.85,23.39c-4.74,24.72,11.84,50.01,37.78,51.17C613.72,647.53,627.55,645.3,629.85,626.79z"/>
			<path d="M833.18,694.61c8.02-5,4.84-13.75,5.16-21.18c-0.07-41.65-0.15-83.3-0.17-124.95c0-4.93-0.86-9.4-5.58-12.7
				c15.02,0,29.55,0,44.92,0c-5.74,3.68-6.06,8.78-6.04,14.16c0.12,38.68,0.16,77.31,0.21,115.99c16.58,2.23,32.92,4.39,49.46,6.66
				c4.36,0.6,8.15-0.12,10.92-4.68c0,14.52,0,28.37,0,42.44C899.11,705.11,866.32,699.88,833.18,694.61z"/>
			<path d="M539.11,712.26c28.06,0,55.94,0,84.02,0c0,6.51,0,12.93,0,19.71c-17.4,0-34.76,0-52.36,0
				c0,5.19,0,10.03,0,15.19c16.11,0,32.25,0,48.59,0c0,6.39,0,12.47,0,18.93c-16.09,0-32.21,0-48.58,0c0,6.43,0,12.48,0,18.87
				c17.97,0,35.86,0,53.94,0c0,7.11,0,13.89,0,20.86c-28.53,0-57,0-85.62,0C539.11,774.61,539.11,743.5,539.11,712.26z"/>
			<path d="M489.23,767.87c8.93,2.48,17.91,4.98,27.12,7.54c-6.89,31.81-40.15,36.7-67.3,29.86
				c-26.8-6.59-36.41-36.17-30.43-60.82c6.07-31.15,43.02-38.93,69.69-31.33c13.27,3.6,22.69,13.06,27.09,26.69
				c-9.13,1.87-18.22,3.72-27.19,5.55c-3.47-8.1-9.78-14.09-21.62-12.9c-18.75,1.48-20.27,25.65-16.49,40.27
				c2.63,10.79,11.65,13.85,20.67,13.23C482.07,785.44,485.99,777.11,489.23,767.87z"/>
			<path d="M359.55,712.25c10.36,0,20.65,0,31.15,0c0,31.18,0,62.29,0,93.58c-10.34,0-20.62,0-31.15,0
				C359.55,774.7,359.55,743.55,359.55,712.25z"/>
		</g>
    </g>
</svg>